<svg version="1.1" id="Layer_1" xmlns="http://www.w3.org/2000/svg" xmlns:xlink="http://www.w3.org/1999/xlink" x="0px" y="0px"
	 width="100%" viewBox="0 0 496 496" enable-background="new 0 0 496 496" xml:space="preserve">
<path fill="#000000" opacity="1.000000" stroke="none" 
	d="
M26.785999,245.662872 
	C30.774147,245.837326 33.538952,245.928436 33.777233,240.759216 
	C35.727428,198.451614 49.576591,160.290665 75.415474,126.790871 
	C108.169426,84.325783 151.240173,58.662807 204.140884,49.473351 
	C211.857788,48.132835 219.618027,47.410080 227.388138,46.830471 
	C230.937546,46.565704 232.062531,45.228947 231.883774,41.926071 
	C231.721893,38.935291 232.055557,35.911781 231.807312,32.932991 
	C231.442978,28.561340 233.578323,27.543102 237.485611,27.627304 
	C241.098221,27.705154 243.772644,28.038717 243.354233,32.696514 
	C243.086990,35.671570 243.477982,38.701897 243.280884,41.688107 
	C243.043457,45.285744 244.396606,46.575573 248.100891,46.813046 
	C272.173615,48.356266 295.657959,53.000366 317.705017,62.942688 
	C383.342377,92.542473 423.746185,142.618454 438.344940,213.265717 
	C440.127777,221.893417 441.496582,230.596237 441.396973,239.464371 
	C441.348022,243.821365 442.994934,246.516327 447.981171,245.695358 
	C449.116913,245.508347 450.309692,245.667633 451.476227,245.667694 
	C461.369751,245.668106 461.369751,245.668106 460.024109,255.752502 
	C456.217651,256.946136 452.186371,256.506287 448.301788,256.231781 
	C443.273438,255.876434 441.430542,257.873413 441.326447,262.719543 
	C440.886108,283.219696 436.718933,303.104095 429.193787,322.051849 
	C400.926819,393.226013 348.916443,436.434235 274.031586,452.022736 
	C265.442169,453.810791 256.578217,454.402405 247.806961,455.133484 
	C244.361679,455.420654 243.062546,456.550201 243.247223,459.956207 
	C243.436356,463.444611 243.213654,466.953308 243.258911,470.452026 
	C243.312363,474.584686 240.372818,474.218872 237.697556,474.221710 
	C235.029968,474.224518 232.041733,474.612823 231.985733,470.553406 
	C231.939774,467.221222 231.789856,463.878754 231.982437,460.558044 
	C232.199219,456.820679 230.930145,455.355286 226.934662,455.103516 
	C206.926117,453.842865 187.247147,450.445740 168.496872,443.214355 
	C98.200943,416.103271 54.538826,365.732635 37.621639,292.285797 
	C35.230755,281.905670 33.722580,271.365234 33.703926,260.683502 
	C33.698212,257.410645 32.370247,256.195221 29.211254,256.316986 
	C25.716898,256.451660 22.205711,256.200165 18.715572,256.381256 
	C14.209728,256.615051 14.734936,253.530838 14.614403,250.695404 
	C14.486159,247.678665 14.934229,245.361084 18.825871,245.633240 
	C21.312990,245.807159 23.822281,245.664017 26.785999,245.662872 
M428.679443,280.358154 
	C429.602081,273.776550 430.546356,267.201355 430.690887,260.535553 
	C430.754578,257.598022 429.602203,256.191315 426.575928,256.337738 
	C423.250824,256.498596 419.909454,256.392334 416.592834,256.639679 
	C412.956268,256.910919 411.838745,255.034286 411.959290,251.825943 
	C412.069672,248.887161 411.369629,245.462662 416.177002,245.658035 
	C419.171417,245.779739 422.198181,245.432205 425.169586,245.718781 
	C429.732910,246.158905 431.039795,244.119141 430.696167,239.881912 
	C429.983459,231.093445 429.331573,222.262756 427.370331,213.685089 
	C410.687012,140.719482 367.043213,91.650558 296.326813,67.004990 
	C280.896179,61.627224 264.833801,58.819637 248.422226,58.204929 
	C244.436508,58.055641 242.959549,59.393444 243.263229,63.318283 
	C243.493896,66.299385 243.184479,69.318413 243.310364,72.312378 
	C243.498047,76.776047 240.414871,76.312042 237.558029,76.362206 
	C234.573807,76.414612 231.711151,76.502197 231.883835,72.179573 
	C232.010086,69.018852 231.782898,65.844055 231.907700,62.683212 
	C232.033554,59.495785 230.736603,58.216419 227.495270,58.249935 
	C220.818466,58.318977 214.249802,59.175617 207.677338,60.233257 
	C168.226776,66.581635 133.859222,83.312477 104.894592,110.848495 
	C67.711067,146.198013 48.215343,189.852310 44.443367,240.797440 
	C44.191772,244.195511 45.306900,245.822769 48.856876,245.679977 
	C52.017773,245.552811 55.210175,245.904495 58.349655,245.617722 
	C63.582592,245.139709 63.203251,248.498810 63.332638,251.990555 
	C63.487701,256.175476 61.287628,257.193298 57.722435,256.937775 
	C54.736736,256.723724 51.745472,256.586060 48.760578,256.362427 
	C45.187973,256.094757 43.895645,257.844879 44.429165,261.196991 
	C45.578129,268.415924 45.700283,275.740204 47.090706,282.953674 
	C60.413582,352.072266 99.298027,400.935547 163.522766,429.444519 
	C183.596176,438.354980 204.841095,443.080597 226.894638,443.873901 
	C230.548767,444.005341 232.177200,442.887634 231.970978,439.127380 
	C231.807022,436.137848 232.079361,433.126038 231.960480,430.131989 
	C231.782410,425.647949 234.653275,425.634552 237.909256,425.628998 
	C241.111862,425.623535 243.540619,425.976318 243.303970,430.112640 
	C243.113968,433.433868 243.361633,436.777740 243.282669,440.108429 
	C243.216568,442.897064 244.461166,444.064728 247.212280,443.880371 
	C251.856506,443.569214 256.492859,443.494904 261.145203,442.909515 
	C305.205139,437.365845 343.024994,418.829773 374.339844,387.595947 
	C403.868378,358.143768 421.679596,322.377991 428.679443,280.358154 
z"/>
<path fill="#000000" opacity="1.000000" stroke="none" 
	d="
M240.997986,145.655762 
	C257.154999,145.737823 272.697174,147.886520 288.319946,148.382751 
	C302.135223,148.821579 315.928131,147.967514 329.536896,145.202728 
	C331.406677,144.822830 333.329803,143.917252 335.928192,145.798340 
	C331.552582,148.517242 326.925842,148.519516 322.607727,149.237411 
	C302.059937,152.653549 281.455139,151.719589 260.916718,149.294769 
	C230.219101,145.670547 200.957626,151.488052 172.315384,161.955002 
	C169.558456,162.962509 166.754318,163.840851 163.970764,165.409897 
	C170.842529,168.968323 177.602921,172.216034 185.496780,171.809906 
	C187.910004,171.685760 190.184006,171.249420 191.844925,174.260422 
	C193.144363,176.616119 195.227478,175.455948 196.481796,173.365067 
	C199.189056,168.852081 202.558380,164.539139 199.667480,158.112946 
	C204.714081,160.914078 205.646942,164.278336 202.699799,168.887482 
	C198.976334,174.710770 196.656097,181.115662 193.961426,187.379150 
	C192.880325,189.892059 191.744339,192.531754 194.794754,194.465393 
	C197.667725,196.286545 199.865631,194.592743 201.839813,192.639206 
	C204.004959,190.496689 205.620316,187.918228 206.586044,185.073105 
	C208.307449,180.001709 211.927719,177.233932 216.832138,175.711563 
	C220.011383,174.724716 223.177780,173.675842 226.288437,172.493011 
	C232.524384,170.121811 237.935562,166.720413 240.814972,160.306000 
	C241.214920,159.415024 241.692993,158.475952 242.876862,158.356262 
	C244.625031,158.545288 243.864227,160.193451 244.607391,161.596191 
	C257.958771,155.029617 272.638092,155.288284 286.862274,153.108215 
	C291.357666,152.419220 294.319916,154.229141 295.717316,158.488388 
	C296.872345,162.008911 294.783112,166.300903 290.808960,167.699310 
	C286.268127,169.297119 281.497559,170.229187 276.896851,171.673737 
	C273.454193,172.754700 268.838867,173.271118 267.948792,177.152344 
	C267.020599,181.199875 271.614075,182.625763 274.291748,184.544373 
	C282.755005,190.608490 292.148651,193.960480 302.740753,193.806671 
	C308.375061,193.724869 314.062653,193.039612 319.661652,194.477097 
	C321.819244,195.031036 324.451233,195.607391 324.976074,197.724380 
	C326.128113,202.371323 329.031616,203.185730 333.077606,202.710175 
	C333.846466,202.619812 334.771698,202.801636 334.966949,203.886536 
	C334.855865,204.181519 334.745728,204.730942 334.634186,204.731232 
	C322.555847,204.762360 312.069763,212.094650 299.927673,212.166245 
	C294.913483,212.195816 292.873871,217.602325 289.175171,220.204819 
	C280.315613,226.438553 271.319733,231.717453 259.921661,229.682419 
	C248.137939,227.578522 236.370728,225.371811 224.635529,223.014725 
	C222.123764,222.510239 220.643295,222.909607 219.271729,225.143753 
	C217.245148,228.444870 213.677277,230.489059 210.347656,228.720764 
	C206.221069,226.529205 202.474777,226.744705 198.204788,227.228516 
	C193.777374,227.730148 190.426224,225.455429 189.129349,221.025299 
	C188.335419,218.313202 186.768173,217.297852 184.050171,217.304153 
	C181.896408,217.309143 179.712067,217.078629 177.594299,216.674744 
	C174.252777,216.037445 171.634521,216.644928 168.996536,219.152786 
	C163.754837,224.135941 158.728195,223.571793 154.512970,217.879181 
	C152.995712,215.830154 150.990860,216.498322 149.095337,216.216934 
	C146.335114,215.807175 143.174866,217.387527 140.698410,214.754913 
	C142.326935,212.294998 144.690109,213.015381 146.725815,212.979507 
	C161.389343,212.721085 176.015015,213.494064 190.619202,214.761215 
	C192.610825,214.934036 194.570816,215.085114 196.438049,213.959625 
	C201.121033,211.136978 205.304276,211.425598 208.522858,216.526703 
	C213.264694,214.103775 217.170731,213.740189 220.906479,218.541763 
	C222.854614,221.045731 227.098892,220.443771 230.337296,220.998917 
	C241.948166,222.989319 253.294876,226.618942 265.211243,226.719925 
	C267.367767,226.738205 269.556580,226.823822 271.866180,225.659607 
	C269.952759,224.781342 267.489563,226.039749 265.761078,223.123840 
	C271.754944,221.274750 278.223511,223.366196 284.186981,220.259323 
	C280.108459,219.728119 276.270294,221.281006 272.480286,217.732086 
	C279.244507,215.044418 287.458313,219.467239 292.813171,212.431519 
	C286.723114,209.526535 279.494385,211.024902 274.159424,206.553940 
	C276.040649,204.137222 277.821503,205.661697 279.402802,206.036530 
	C291.712372,208.954269 304.000427,210.234375 316.288727,205.984680 
	C317.386719,205.604950 318.500519,205.215729 319.515015,204.662399 
	C321.137421,203.777481 322.856781,202.787491 322.528229,200.544571 
	C322.243317,198.599319 320.545258,197.973083 318.949524,197.468887 
	C314.573669,196.086288 310.128998,196.327530 305.600861,196.680481 
	C290.436523,197.862473 277.462219,192.646927 266.534943,182.332336 
	C262.792175,178.799423 263.591888,174.780182 268.227142,172.101349 
	C273.183594,169.236862 278.779419,168.090591 284.231934,166.571198 
	C286.457458,165.951004 288.823975,165.662018 290.764771,164.202118 
	C292.389862,162.979767 293.135406,161.401688 292.669006,159.410110 
	C292.190826,157.368149 290.725311,156.057098 288.712158,156.282196 
	C271.460114,158.211258 253.511475,157.560440 238.703583,169.003342 
	C232.766083,173.591568 225.815308,175.901764 218.878265,178.252151 
	C214.199493,179.837372 210.657471,182.373856 209.000381,187.302551 
	C207.814392,190.830078 205.587814,193.817429 202.584961,196.063965 
	C199.406830,198.441666 195.894470,199.324432 192.424911,196.785782 
	C189.020874,194.295090 189.243774,190.869965 190.600143,187.326035 
	C191.594818,184.727173 193.176468,182.296478 193.155777,178.999039 
	C184.396347,176.183243 175.631531,173.653305 167.081345,170.534912 
	C158.810501,167.518402 150.441055,164.516937 142.861832,158.914139 
	C145.998306,157.000641 147.764526,158.830093 149.448288,159.842590 
	C154.360641,162.796631 159.093979,163.025650 164.661896,161.205414 
	C181.567932,155.678543 198.387573,149.782471 216.126892,147.172745 
	C224.240417,145.979095 232.336853,145.545517 240.997986,145.655762 
M194.442047,223.311600 
	C195.677597,224.259384 197.068787,224.668304 198.626923,224.593842 
	C201.738632,224.445114 203.378693,222.460083 204.372971,219.840576 
	C204.925430,218.385101 204.950027,216.692978 203.344711,215.881912 
	C200.628830,214.509705 198.327911,215.707077 196.974854,218.020660 
	C195.791306,220.044434 193.895752,219.095276 192.453827,219.519577 
	C192.411072,221.082275 193.192535,221.954239 194.442047,223.311600 
M213.920120,225.648438 
	C216.748978,223.995926 219.351044,221.288361 216.268127,218.755325 
	C211.707092,215.007797 210.852829,222.032913 207.122543,222.380554 
	C208.680237,225.390793 210.757736,225.925201 213.920120,225.648438 
M164.426132,216.328110 
	C162.295288,216.507736 159.944077,215.563919 157.882294,217.508759 
	C159.319885,220.009094 161.354416,220.009750 163.382416,219.127670 
	C164.287186,218.734146 166.785400,218.716751 164.426132,216.328110 
z"/>
<path fill="#000000" opacity="1.000000" stroke="none" 
	d="
M185.612457,269.898560 
	C192.912033,258.691467 204.047256,254.837616 216.148575,259.049774 
	C225.608139,262.342407 232.713013,276.218353 229.950378,285.750366 
	C229.271606,288.092316 227.711838,288.332672 225.776047,288.330872 
	C219.276352,288.324829 212.776596,288.324219 206.276978,288.347565 
	C203.962326,288.355865 201.599625,288.160614 198.668686,289.999146 
	C205.860519,300.395233 215.737442,295.281921 224.247223,294.792206 
	C224.665421,295.146179 224.864136,295.229401 224.906921,295.362671 
	C228.296677,305.923676 226.932800,308.229065 215.961578,309.164032 
	C211.345474,309.557434 206.513901,309.767883 202.022552,308.861206 
	C185.216980,305.468689 180.766235,292.305725 183.189865,276.828430 
	C183.543610,274.569427 184.671951,272.431702 185.612457,269.898560 
M213.157959,273.295593 
	C206.410950,268.725800 201.041611,270.065216 199.250565,277.045319 
	C203.661133,278.204315 208.145325,277.708252 212.549683,277.502197 
	C215.237106,277.376495 214.495117,275.444580 213.157959,273.295593 
z"/>
<path fill="#000000" opacity="1.000000" stroke="none" 
	d="
M239.659576,261.024353 
	C239.847610,256.394012 239.276657,252.242935 240.581451,248.142700 
	C244.136780,236.970276 260.381378,230.328583 270.752380,235.886124 
	C271.900269,236.501251 272.722168,237.274979 272.506165,238.582916 
	C272.073273,241.204315 271.764648,243.898514 270.889313,246.380920 
	C269.866913,249.280472 267.410492,248.051392 265.328857,247.715515 
	C259.196320,246.725983 255.223862,249.727661 254.865723,255.321487 
	C254.710419,257.747345 255.575256,258.696259 257.925323,258.659271 
	C261.255432,258.606873 264.591003,258.758728 267.916962,258.631744 
	C270.871185,258.518890 272.004608,259.740692 272.184540,262.705872 
	C272.689331,271.025696 272.475616,271.342468 264.014984,271.371002 
	C253.404968,271.406799 254.454956,270.311523 254.413986,281.061615 
	C254.384796,288.722992 254.288422,296.386078 254.413452,304.045227 
	C254.466370,307.286377 253.210297,308.434052 250.002747,308.383484 
	C237.734680,308.190033 239.792358,309.367126 239.686707,298.494202 
	C239.566956,286.170319 239.659531,273.844391 239.659576,261.024353 
z"/>
<path fill="#000000" opacity="1.000000" stroke="none" 
	d="
M348.289124,301.736847 
	C349.403809,303.761658 350.917725,305.208252 351.051025,307.882141 
	C346.341095,308.741730 341.587646,308.625977 336.932861,308.010712 
	C334.392914,307.674957 333.903442,304.686737 332.750824,302.738586 
	C326.937927,292.913696 324.526672,292.587189 319.544861,302.622620 
	C315.161713,311.452179 308.140564,307.392365 301.771484,308.315430 
	C301.328491,304.592987 303.834076,302.710815 305.182770,300.404602 
	C307.109619,297.109711 309.272736,293.927368 311.588898,290.890686 
	C317.647186,282.947784 317.609528,283.051483 311.891907,274.481567 
	C308.624176,269.583771 304.546570,265.181885 301.952423,259.717010 
	C313.681763,255.590195 321.062714,260.399872 325.549225,270.679443 
	C331.304169,267.519135 331.797974,260.136932 337.583740,258.902618 
	C341.526093,258.061584 345.826782,258.293060 350.545959,259.154205 
	C348.744659,263.988617 345.309448,267.427063 342.624664,271.269470 
	C334.734894,282.560883 334.668457,282.503693 342.678101,293.651306 
	C344.522797,296.218750 346.295593,298.837860 348.289124,301.736847 
z"/>
<path fill="#000000" opacity="1.000000" stroke="none" 
	d="
M175.247009,290.352356 
	C175.368469,302.734283 169.277756,309.071625 157.335632,309.300232 
	C151.356552,309.414703 145.359482,309.727081 139.563705,307.560303 
	C133.444305,305.272522 137.758041,301.138550 137.884613,297.906433 
	C138.017853,294.504333 140.483154,294.899292 143.030014,295.611694 
	C147.182266,296.773132 151.395660,298.015839 155.774597,297.361572 
	C157.320374,297.130676 159.320526,296.806122 159.514160,294.666077 
	C159.700668,292.604553 158.017242,291.789825 156.441544,291.237091 
	C153.620605,290.247559 150.727951,289.464478 147.876587,288.559387 
	C141.360275,286.490967 137.989059,282.312561 137.679901,275.963715 
	C137.257263,267.284302 140.018509,262.139160 146.843292,259.447754 
	C154.638214,256.373810 162.514832,257.298920 170.362762,259.366821 
	C172.258057,259.866241 172.919785,260.850708 172.659927,263.001556 
	C171.695221,270.986755 170.971573,271.665466 163.178848,270.156647 
	C160.552475,269.648132 157.987762,268.855591 155.363068,270.098755 
	C154.121521,270.686798 152.885941,271.302856 152.966980,272.924652 
	C153.034027,274.266083 154.054688,275.023193 155.171753,275.381775 
	C157.857605,276.243896 160.563705,277.090973 163.317719,277.683380 
	C170.043900,279.130280 174.444870,282.729492 175.247009,290.352356 
z"/>
<path fill="#000000" opacity="1.000000" stroke="none" 
	d="
M403.191223,309.331116 
	C392.004913,308.668060 386.810364,303.800781 385.589050,293.059448 
	C383.929260,278.462006 385.259338,263.806763 384.863831,249.183533 
	C384.805084,247.011154 385.792542,245.741791 387.992920,245.452728 
	C388.481842,245.388474 388.943665,245.110840 389.432373,245.052872 
	C400.416260,243.749817 400.547729,240.981003 400.208466,253.430420 
	C400.092163,257.697754 401.730408,259.132935 405.738159,258.697815 
	C407.382935,258.519287 409.063110,258.671173 410.727112,258.664124 
	C417.009277,258.637482 417.146820,258.771942 417.176788,265.031647 
	C417.207031,271.348267 417.189301,271.345734 410.241577,271.366577 
	C399.500397,271.398743 400.331848,270.012268 400.285461,281.213959 
	C400.274445,283.876160 400.196991,286.545929 400.360229,289.199310 
	C400.691742,294.586823 404.099274,297.310608 409.454468,296.428864 
	C411.734192,296.053497 413.957184,295.349701 416.177063,295.591705 
	C416.526825,295.989990 416.867279,296.202759 416.938171,296.483582 
	C420.004669,308.630524 419.293732,309.315247 403.191223,309.331116 
z"/>
<path fill="#000000" opacity="1.000000" stroke="none" 
	d="
M89.032944,262.058319 
	C89.718552,259.974548 90.521347,258.636566 92.620148,258.708771 
	C96.579117,258.844971 100.574242,258.229401 104.319122,259.086426 
	C105.367477,260.393982 104.846527,261.499298 104.510597,262.595551 
	C100.163719,276.780945 94.889107,290.601532 88.664452,304.080322 
	C87.060646,307.553192 84.874298,308.677185 81.283112,308.390656 
	C77.589867,308.096008 73.935829,309.149292 71.699501,304.308594 
	C64.987106,289.779297 59.236481,274.940216 54.820950,259.384644 
	C59.760799,256.823181 64.550270,258.956726 69.230911,258.938171 
	C71.005798,258.931152 71.095688,260.979340 71.534126,262.396973 
	C73.499809,268.752777 75.448120,275.115051 77.527237,281.433990 
	C78.130196,283.266541 78.409286,285.366486 80.741409,286.918579 
	C84.318207,278.933746 86.439827,270.634735 89.032944,262.058319 
z"/>
<path fill="#000000" opacity="1.000000" stroke="none" 
	d="
M127.156647,279.000305 
	C127.153870,287.477386 127.048080,295.456299 127.186455,303.430969 
	C127.248466,307.004486 126.027550,308.485260 122.275925,308.401947 
	C109.939613,308.127930 111.824547,309.507935 111.718796,298.213867 
	C111.611443,286.747589 111.809898,275.277679 111.629601,263.813202 
	C111.569321,259.980621 112.741005,258.495026 116.742607,258.600372 
	C128.389801,258.907013 127.035957,257.313171 127.145370,269.027496 
	C127.174858,272.184906 127.151970,275.342773 127.156647,279.000305 
z"/>
<path fill="#000000" opacity="1.000000" stroke="none" 
	d="
M278.740479,265.114044 
	C277.998840,259.636993 280.448700,258.428284 285.046204,258.584167 
	C295.064270,258.923828 294.185699,257.654419 294.218384,267.713867 
	C294.256226,279.350983 294.063721,290.991028 294.274139,302.624298 
	C294.350800,306.861450 293.174011,308.586121 288.654877,308.425018 
	C277.545502,308.028961 278.831604,309.576874 278.752228,298.515717 
	C278.673462,287.543945 278.738373,276.571167 278.740479,265.114044 
z"/>
<path fill="#000000" opacity="1.000000" stroke="none" 
	d="
M373.335327,292.995911 
	C373.334900,295.157623 373.334198,296.820099 373.333557,298.482574 
	C373.329651,308.643616 371.316589,310.194336 361.010529,308.323029 
	C358.900208,307.939880 358.129211,306.778229 358.127319,304.961395 
	C358.112427,290.666992 358.132294,276.372406 358.200073,262.078125 
	C358.211639,259.636566 359.627319,258.644348 362.081818,258.655365 
	C375.931396,258.717621 373.091248,257.534576 373.307983,269.056152 
	C373.454895,276.867065 373.335419,284.682983 373.335327,292.995911 
z"/>
<path fill="#000000" opacity="1.000000" stroke="none" 
	d="
M111.868820,238.231750 
	C117.163513,233.406937 123.559494,233.580643 126.677925,238.378479 
	C128.996262,241.945312 128.898041,245.673203 126.391922,249.053238 
	C123.790344,252.561981 119.971954,253.131714 116.114998,251.842911 
	C112.256851,250.553665 110.440529,247.522202 110.628197,243.361557 
	C110.703232,241.697754 110.689476,240.045761 111.868820,238.231750 
z"/>
<path fill="#000000" opacity="1.000000" stroke="none" 
	d="
M278.620605,247.927917 
	C276.707642,240.411255 278.947235,235.727615 284.545197,234.783051 
	C289.171600,234.002411 293.107361,236.032639 294.671600,240.006577 
	C296.361420,244.299530 294.821045,249.056717 291.026764,251.262878 
	C286.999786,253.604340 282.555634,252.527313 278.620605,247.927917 
z"/>
<path fill="#000000" opacity="1.000000" stroke="none" 
	d="
M371.999329,249.975937 
	C368.119965,252.996429 364.304535,253.254562 360.602905,250.774780 
	C357.401917,248.630371 356.324066,245.299088 357.045013,241.576279 
	C357.739441,237.990646 359.994720,235.615723 363.621399,234.890717 
	C367.286987,234.157883 370.818665,234.742767 372.906799,238.114639 
	C375.282227,241.950333 375.216278,245.974396 371.999329,249.975937 
z"/>
</svg>